<mxfile host="app.diagrams.net" modified="2022-01-27T18:14:29.464Z" agent="5.0 (Macintosh; Intel Mac OS X 10_15_7) AppleWebKit/605.1.15 (KHTML, like Gecko) Version/15.1 Safari/605.1.15" etag="5f-GeYKs-aUiLUzx8aru" version="16.4.11" type="github">
  <diagram id="AIdyxsNL8TJNiMNLdfjP" name="Page-1">
    <mxGraphModel dx="946" dy="534" grid="1" gridSize="10" guides="1" tooltips="1" connect="1" arrows="1" fold="1" page="1" pageScale="1" pageWidth="850" pageHeight="1100" math="0" shadow="0">
      <root>
        <mxCell id="0" />
        <mxCell id="1" parent="0" />
        <mxCell id="aDo9ujXuj99X__dcEN3k-1" value="&lt;font color=&quot;#ffffff&quot;&gt;Start&lt;/font&gt;" style="rounded=1;whiteSpace=wrap;html=1;fillColor=#FFB570;strokeColor=#d79b00;" parent="1" vertex="1">
          <mxGeometry x="360" y="20" width="120" height="60" as="geometry" />
        </mxCell>
        <mxCell id="aDo9ujXuj99X__dcEN3k-2" value="" style="endArrow=classic;html=1;rounded=0;fontColor=#FFFFFF;exitX=0.5;exitY=1;exitDx=0;exitDy=0;" parent="1" edge="1">
          <mxGeometry width="50" height="50" relative="1" as="geometry">
            <mxPoint x="420" y="80" as="sourcePoint" />
            <mxPoint x="420" y="120" as="targetPoint" />
          </mxGeometry>
        </mxCell>
        <mxCell id="aDo9ujXuj99X__dcEN3k-3" value="Enter an array&amp;nbsp;&lt;br&gt;=&lt;br&gt;N" style="shape=parallelogram;perimeter=parallelogramPerimeter;whiteSpace=wrap;html=1;fixedSize=1;labelBackgroundColor=none;fontSize=12;fontColor=#FFFFFF;strokeColor=#000000;fillColor=#7EA6E0;" parent="1" vertex="1">
          <mxGeometry x="360" y="120" width="120" height="60" as="geometry" />
        </mxCell>
        <mxCell id="aDo9ujXuj99X__dcEN3k-4" value="" style="endArrow=classic;html=1;rounded=0;fontColor=#FFFFFF;exitX=0.5;exitY=1;exitDx=0;exitDy=0;" parent="1" edge="1">
          <mxGeometry width="50" height="50" relative="1" as="geometry">
            <mxPoint x="419.5000000000003" y="180" as="sourcePoint" />
            <mxPoint x="419.5000000000003" y="220" as="targetPoint" />
          </mxGeometry>
        </mxCell>
        <mxCell id="aDo9ujXuj99X__dcEN3k-5" value="&lt;font color=&quot;#ffffff&quot;&gt;Is &amp;nbsp;N[i] &lt;br&gt;greater than 50?&lt;/font&gt;" style="rhombus;whiteSpace=wrap;html=1;fillColor=#B5739D;" parent="1" vertex="1">
          <mxGeometry x="280" y="480" width="80" height="100" as="geometry" />
        </mxCell>
        <mxCell id="aDo9ujXuj99X__dcEN3k-6" value="i = 0&lt;br&gt;s = 0" style="shape=parallelogram;perimeter=parallelogramPerimeter;whiteSpace=wrap;html=1;fixedSize=1;fontColor=#FFFFFF;fillColor=#7EA6E0;strokeColor=default;" parent="1" vertex="1">
          <mxGeometry x="360" y="220" width="120" height="60" as="geometry" />
        </mxCell>
        <mxCell id="aDo9ujXuj99X__dcEN3k-7" value="" style="endArrow=classic;html=1;rounded=0;fontColor=#FFFFFF;exitX=0.5;exitY=1;exitDx=0;exitDy=0;" parent="1" edge="1">
          <mxGeometry width="50" height="50" relative="1" as="geometry">
            <mxPoint x="419.66000000000025" y="280" as="sourcePoint" />
            <mxPoint x="419.66000000000025" y="320" as="targetPoint" />
          </mxGeometry>
        </mxCell>
        <mxCell id="aDo9ujXuj99X__dcEN3k-8" value="&lt;font color=&quot;#000000&quot;&gt;Yes&lt;/font&gt;" style="endArrow=classic;html=1;rounded=0;fontColor=#FFFFFF;exitX=0.5;exitY=1;exitDx=0;exitDy=0;" parent="1" edge="1">
          <mxGeometry width="50" height="50" relative="1" as="geometry">
            <mxPoint x="280.00000000000034" y="530" as="sourcePoint" />
            <mxPoint x="240" y="630" as="targetPoint" />
          </mxGeometry>
        </mxCell>
        <mxCell id="aDo9ujXuj99X__dcEN3k-9" value="&lt;font color=&quot;#000000&quot;&gt;No&lt;/font&gt;" style="endArrow=classic;html=1;rounded=0;fontColor=#FFFFFF;exitX=0.5;exitY=1;exitDx=0;exitDy=0;" parent="1" edge="1">
          <mxGeometry width="50" height="50" relative="1" as="geometry">
            <mxPoint x="360.00000000000045" y="530" as="sourcePoint" />
            <mxPoint x="400" y="630" as="targetPoint" />
          </mxGeometry>
        </mxCell>
        <mxCell id="aDo9ujXuj99X__dcEN3k-12" value="" style="endArrow=classic;html=1;rounded=0;fontColor=#000000;exitX=0;exitY=0.5;exitDx=0;exitDy=0;" parent="1" edge="1">
          <mxGeometry width="50" height="50" relative="1" as="geometry">
            <mxPoint x="190" y="660" as="sourcePoint" />
            <mxPoint x="280" y="530" as="targetPoint" />
            <Array as="points">
              <mxPoint x="170" y="660" />
              <mxPoint x="170" y="600" />
              <mxPoint x="170" y="530" />
            </Array>
          </mxGeometry>
        </mxCell>
        <mxCell id="aDo9ujXuj99X__dcEN3k-13" value="" style="endArrow=classic;html=1;rounded=0;fontColor=#000000;exitX=0;exitY=0.5;exitDx=0;exitDy=0;" parent="1" edge="1">
          <mxGeometry width="50" height="50" relative="1" as="geometry">
            <mxPoint x="449.9999999999999" y="660" as="sourcePoint" />
            <mxPoint x="360" y="530" as="targetPoint" />
            <Array as="points">
              <mxPoint x="470" y="660" />
              <mxPoint x="470" y="600" />
              <mxPoint x="470" y="530" />
            </Array>
          </mxGeometry>
        </mxCell>
        <mxCell id="aDo9ujXuj99X__dcEN3k-15" value="&lt;font color=&quot;#ffffff&quot;&gt;i = i + 1&lt;br&gt;s = s + 1&lt;/font&gt;" style="rounded=0;whiteSpace=wrap;html=1;fontColor=#000000;fillColor=#97D077;" parent="1" vertex="1">
          <mxGeometry x="190" y="630" width="110" height="60" as="geometry" />
        </mxCell>
        <mxCell id="aDo9ujXuj99X__dcEN3k-16" value="&lt;font color=&quot;#ffffff&quot;&gt;i = i&lt;br&gt;s = s&lt;/font&gt;" style="rounded=0;whiteSpace=wrap;html=1;fontColor=#000000;fillColor=#97D077;" parent="1" vertex="1">
          <mxGeometry x="340" y="630" width="110" height="60" as="geometry" />
        </mxCell>
        <mxCell id="aDo9ujXuj99X__dcEN3k-17" value="Is i greater than length of N?" style="rhombus;whiteSpace=wrap;html=1;fontColor=#FFFFFF;strokeColor=default;fillColor=#B5739D;" parent="1" vertex="1">
          <mxGeometry x="365" y="320" width="110" height="120" as="geometry" />
        </mxCell>
        <mxCell id="aDo9ujXuj99X__dcEN3k-18" value="&lt;font color=&quot;#000000&quot;&gt;No&lt;/font&gt;" style="endArrow=classic;html=1;rounded=0;fontColor=#FFFFFF;exitX=0.5;exitY=1;exitDx=0;exitDy=0;entryX=0.5;entryY=0;entryDx=0;entryDy=0;" parent="1" target="aDo9ujXuj99X__dcEN3k-5" edge="1">
          <mxGeometry width="50" height="50" relative="1" as="geometry">
            <mxPoint x="365.00000000000045" y="380" as="sourcePoint" />
            <mxPoint x="325" y="480" as="targetPoint" />
          </mxGeometry>
        </mxCell>
        <mxCell id="aDo9ujXuj99X__dcEN3k-19" value="&lt;font color=&quot;#000000&quot;&gt;Yes&lt;/font&gt;" style="endArrow=classic;html=1;rounded=0;fontColor=#FFFFFF;exitX=0.5;exitY=1;exitDx=0;exitDy=0;entryX=0.5;entryY=0;entryDx=0;entryDy=0;" parent="1" target="aDo9ujXuj99X__dcEN3k-20" edge="1">
          <mxGeometry width="50" height="50" relative="1" as="geometry">
            <mxPoint x="475.00000000000045" y="380" as="sourcePoint" />
            <mxPoint x="515" y="480" as="targetPoint" />
          </mxGeometry>
        </mxCell>
        <mxCell id="aDo9ujXuj99X__dcEN3k-20" value="&lt;font color=&quot;#ffffff&quot;&gt;&lt;span&gt;Stop counting&lt;/span&gt;&lt;/font&gt;" style="rounded=0;whiteSpace=wrap;html=1;fontColor=#000000;fillColor=#97D077;" parent="1" vertex="1">
          <mxGeometry x="500" y="500" width="110" height="60" as="geometry" />
        </mxCell>
        <mxCell id="u-XEsdiDKxcZc8PR7JE6-1" value="&lt;font color=&quot;#ffffff&quot;&gt;End&lt;/font&gt;" style="rounded=1;whiteSpace=wrap;html=1;fillColor=#FFB570;strokeColor=#d79b00;" vertex="1" parent="1">
          <mxGeometry x="495" y="600" width="120" height="60" as="geometry" />
        </mxCell>
        <mxCell id="u-XEsdiDKxcZc8PR7JE6-2" value="" style="endArrow=classic;html=1;rounded=0;fontColor=#FFFFFF;exitX=0.5;exitY=1;exitDx=0;exitDy=0;" edge="1" parent="1">
          <mxGeometry width="50" height="50" relative="1" as="geometry">
            <mxPoint x="554.5" y="560" as="sourcePoint" />
            <mxPoint x="554.5" y="600" as="targetPoint" />
          </mxGeometry>
        </mxCell>
      </root>
    </mxGraphModel>
  </diagram>
</mxfile>
